# xmcd
#
# Track frame offsets:
#	150
#	19954
#	36817
#	56429
#	77546
#	94891
#	112626
#	130189
#	147636
#	166713
#	186358
#	205235
#	222966
#	240662
#
# Disc length: 3430 seconds
#
# Revision: 19
# Processed by: cddbd v1.5.2PL0 Copyright (c) Steve Scherf et al.
# Submitted via: Jack! The Knife 20 Magnifico
#
DISCID=bc0d640e
DTITLE=Nek - La vita è
DYEAR=2000
DGENRE=Pop
TTITLE0=Ci sei tu
TTITLE1=Miami
TTITLE2=La vita è
TTITLE3=Il nostro giorno in più
TTITLE4=Pieno d'energia
TTITLE5=Sul treno
TTITLE6=Sana gelosia
TTITLE7=Mi piace vivere
TTITLE8=Meglio esserci
TTITLE9=Credo
TTITLE10=Missile speciale
TTITLE11=Tu mi dai
TTITLE12=Con la terra sotto di me
TTITLE13=Ci sei tu (Chitarra e voce)
EXTD=
EXTT0=Neviani, Bottoni
EXTT1=Neviani, Varini
EXTT2=Neviani, Varini
EXTT3=Neviani, Porro
EXTT4=Neviani, Varini
EXTT5=Filippo Neviani
EXTT6=Filippo Neviani
EXTT7=Filippo Neviani
EXTT8=Filippo Neviani
EXTT9=Neviani, Varini
EXTT10=Filippo Neviani
EXTT11=Filippo Neviani
EXTT12=Filippo Neviani
EXTT13=Neviani, Bottoni
PLAYORDER=
